<svg width="512" height="512" viewBox="0 0 512 512" xmlns="http://www.w3.org/2000/svg">
  <!-- Background with rounded corners (iOS style) -->
  <rect width="512" height="512" rx="102" fill="#3B82F6"/>

  <!-- GraduationCap icon - properly scaled from Lucide 24x24 to fit 512x512 -->
  <!-- Center position: icon 320x320 centered in 512x512 = offset 96 -->
  <g transform="translate(96, 116)" fill="none" stroke="white" stroke-width="20" stroke-linecap="round" stroke-linejoin="round">
    <!-- Cap top (diamond shape) -->
    <path d="M277.87 141.96a13.33 13.33 0 0 0-.25-24.51L171.07 69.07a26.67 26.67 0 0 0-22.14 0L42.4 117.4a13.33 13.33 0 0 0 0 24.43l106.53 52.1a26.67 26.67 0 0 0 22.14 0l106.8-51.97Z"/>
    <!-- Tassel string (right side) -->
    <path d="M293.33 133.33v80"/>
    <!-- Bottom curve (student body area) -->
    <path d="M80 166.67V213.33c0 22.09 35.82 40 80 40s80-17.91 80-40V166.67"/>
  </g>
</svg>
